<svg width="507" height="200" viewBox="0 0 507 200"  xmlns="http://www.w3.org/2000/svg" style="color:initial;">
<path d="M100 190C149.706 190 190 149.706 190 100C190 92.0505 188.969 84.3417 187.034 77H197.342C199.08 84.3845 200 92.0849 200 100C200 155.228 155.228 200 100 200C74.227 200 50.7313 190.25 33 174.237V160.093C49.477 178.451 73.3898 190 100 190Z" fill="#d9d1e0"/>
<path d="M23 146.62C14.75 133.022 10 117.066 10 100C10 50.2944 50.2944 10 100 10C138.056 10 170.596 33.6202 183.758 67H194.427C180.794 27.9862 143.665 0 100 0C44.7715 0 0 44.7715 0 100C0 124.255 8.6356 146.494 23 163.809V146.62Z" fill="#d9d1e0"/>
<path d="M81 58H91V138H81V58Z" fill="#d9d1e0"/>
<path d="M33 77.5684V172H43V94.0209L33 77.5684Z" fill="#d9d1e0"/>
<path d="M43 74.8127V58H33V58.3602L43 74.8127Z" fill="#d9d1e0"/>
<path d="M37.3191 58L34 60L81 138L88.7087 133.355L43.3025 58H37.3191Z" fill="#d9d1e0"/>
<path d="M141 138V129C141 129 141 129 141 129C123.879 129 110 115.121 110 98C110 80.8792 123.879 67 141 67C141 67 141 67 141 67L141 58C137.946 58 134.929 58.3492 132 59.0255C124.755 60.6986 118.058 64.3736 112.716 69.7157C105.214 77.2172 101 87.3913 101 98C101 108.609 105.214 118.783 112.716 126.284C118.058 131.626 124.755 135.301 132 136.975C134.929 137.651 137.946 138 141 138Z" fill="#d9d1e0"/>
<path d="M141 58L187 58V67H141L141 58Z" fill="#d9d1e0"/>
<path d="M134 94H167V103H134V94Z" fill="#d9d1e0"/>
<path d="M157 114H166V138H157V114Z" fill="#d9d1e0"/>
<path d="M141 129H159V138H141V129Z" fill="#d9d1e0"/>
<path d="M255.278 135.96C250.67 135.96 246.702 135.192 243.374 133.656C240.11 132.12 237.582 129.912 235.79 127.032C233.998 124.152 233.07 120.728 233.006 116.76H241.646C241.646 120.28 242.83 123.064 245.198 125.112C247.63 127.16 250.99 128.184 255.278 128.184C259.31 128.184 262.446 127.192 264.686 125.208C266.99 123.224 268.142 120.472 268.142 116.952C268.142 114.136 267.374 111.672 265.838 109.56C264.366 107.448 262.222 105.976 259.406 105.144L249.902 102.168C245.102 100.696 241.39 98.232 238.766 94.776C236.206 91.32 234.926 87.256 234.926 82.584C234.926 78.808 235.758 75.544 237.422 72.792C239.15 69.976 241.55 67.8 244.622 66.264C247.694 64.664 251.31 63.864 255.47 63.864C261.614 63.864 266.542 65.592 270.254 69.048C273.966 72.44 275.854 76.984 275.918 82.68H267.278C267.278 79.224 266.222 76.536 264.11 74.616C262.062 72.632 259.15 71.64 255.374 71.64C251.662 71.64 248.75 72.536 246.638 74.328C244.59 76.12 243.566 78.616 243.566 81.816C243.566 84.696 244.334 87.192 245.87 89.304C247.406 91.416 249.614 92.92 252.494 93.816L262.094 96.888C266.766 98.36 270.382 100.856 272.942 104.376C275.502 107.896 276.782 112.024 276.782 116.76C276.782 120.6 275.886 123.96 274.094 126.84C272.302 129.72 269.774 131.96 266.51 133.56C263.31 135.16 259.566 135.96 255.278 135.96Z" fill="#d9d1e0"/>
<path d="M308.136 135V72.696H288.936V64.824H335.976V72.696H316.776V135H308.136Z" fill="#d9d1e0"/>
<path d="M370.019 135.96C365.795 135.96 362.147 135.16 359.075 133.56C356.067 131.96 353.731 129.656 352.067 126.648C350.467 123.576 349.667 119.96 349.667 115.8V84.12C349.667 79.896 350.467 76.28 352.067 73.272C353.731 70.264 356.067 67.96 359.075 66.36C362.147 64.76 365.795 63.96 370.019 63.96C374.243 63.96 377.859 64.76 380.867 66.36C383.939 67.96 386.275 70.264 387.875 73.272C389.539 76.28 390.371 79.864 390.371 84.024V115.8C390.371 119.96 389.539 123.576 387.875 126.648C386.275 129.656 383.939 131.96 380.867 133.56C377.859 135.16 374.243 135.96 370.019 135.96ZM370.019 128.184C373.795 128.184 376.675 127.128 378.659 125.016C380.707 122.84 381.731 119.768 381.731 115.8V84.12C381.731 80.152 380.707 77.112 378.659 75C376.675 72.824 373.795 71.736 370.019 71.736C366.307 71.736 363.427 72.824 361.379 75C359.331 77.112 358.307 80.152 358.307 84.12V115.8C358.307 119.768 359.331 122.84 361.379 125.016C363.427 127.128 366.307 128.184 370.019 128.184Z" fill="#d9d1e0"/>
<path d="M407.613 135V64.92H429.309C433.469 64.92 437.117 65.784 440.253 67.512C443.389 69.176 445.821 71.512 447.549 74.52C449.277 77.528 450.141 81.048 450.141 85.08C450.141 89.816 448.893 93.88 446.397 97.272C443.965 100.664 440.637 103 436.413 104.28L451.101 135H440.925L427.485 105.24H416.253V135H407.613ZM416.253 97.464H429.309C432.893 97.464 435.773 96.344 437.949 94.104C440.125 91.8 441.213 88.792 441.213 85.08C441.213 81.304 440.125 78.296 437.949 76.056C435.773 73.816 432.893 72.696 429.309 72.696H416.253V97.464Z" fill="#d9d1e0"/>
<path d="M465.944 135V64.92H506.264V72.792H474.488V94.488H502.904V102.264H474.488V127.128H506.264V135H465.944Z" fill="#d9d1e0"/>
</svg>
